<?xml version="1.0" encoding="UTF-8"?>
<svg id="Layer_1" xmlns="http://www.w3.org/2000/svg" xmlns:xlink="http://www.w3.org/1999/xlink" version="1.1" viewBox="0 0 183 28">
  <!-- Generator: Adobe Illustrator 29.6.1, SVG Export Plug-In . SVG Version: 2.1.1 Build 9)  -->
  <defs>
    <style>
      .st0 {
        mask: url(#mask);
      }

      .st1 {
        fill: #fff;
      }

      .st1, .st2, .st3 {
        fill-rule: evenodd;
      }

      .st2 {
        fill: #9013fe;
      }

      .st4 {
        mask: url(#mask-1);
      }
    </style>
    <mask id="mask" x="0" y="0" width="25.9" height="27.55" maskUnits="userSpaceOnUse">
      <g id="mask0_37_23">
        <path class="st1" d="M0,0h25.9v27.55H0V0Z"/>
      </g>
    </mask>
    <mask id="mask-1" x="83.13" y="0" width="25.9" height="27.55" maskUnits="userSpaceOnUse">
      <g id="mask1_37_23">
        <path class="st1" d="M83.13,0h25.9v27.55h-25.9V0Z"/>
      </g>
    </mask>
  </defs>
  <g class="st0">
    <path class="st3" d="M25.9,6.61l-4.11,2.9c-1.77-2.82-4.27-4.47-7.61-4.47-4.95,0-8.58,3.63-8.58,8.78s3.63,8.7,8.58,8.7c3.34,0,5.84-1.65,7.61-4.47l4.11,2.9c-2.3,4.07-6.61,6.6-11.76,6.6C6.24,27.55,0,21.59,0,13.77S6.24,0,14.18,0c5.11,0,9.38,2.54,11.72,6.61Z"/>
  </g>
  <path class="st2" d="M58.08,16.59v10.47h-5.44v-10.43L43.46.48h6.04l5.88,10.55L61.22.48h6l-9.14,16.11Z"/>
  <g class="st4">
    <path class="st3" d="M109.03,6.61l-4.11,2.9c-1.77-2.82-4.27-4.47-7.61-4.47-4.95,0-8.58,3.63-8.58,8.78s3.62,8.7,8.58,8.7c3.34,0,5.84-1.65,7.61-4.47l4.11,2.9c-2.3,4.07-6.61,6.6-11.76,6.6-7.89,0-14.14-5.96-14.14-13.77S89.37,0,97.3,0c5.12,0,9.39,2.54,11.72,6.61Z"/>
  </g>
  <path class="st3" d="M133.99,22.15h11.64v4.91h-17.08V.48h5.44v21.67Z"/>
  <path class="st3" d="M182.45,5.4h-12.45v5.4h9.14v4.63h-9.14v6.73h12.93v4.91h-18.37V.48h17.88v4.92Z"/>
</svg>